# xmcd CD database file
#
# Track frame offsets:
#	150
#	11321
#	24719
#	37271
#	52527
#	76372
#	89085
#	100099
#	123329
#	135518
#	159477
#	171181
#	186694
#	204000
#
# Disc length: 2868 seconds
#
# Revision: 0
# Processed by: cddbd v1.4PL0 Copyright (c) Steve Scherf et al.
# Submitted via: CDex 1.50beta10
#
DISCID=af0b320e
DTITLE=Dinah Washington - Forever Gold
DYEAR=2001
DGENRE=Jazz
TTITLE0=What A Diference A Day Made
TTITLE1=Mad About The Boy
TTITLE2=Ain't Misbehavin'
TTITLE3=Smoke Gets In Your Eyes
TTITLE4=Blue Gardenia
TTITLE5=Cry Me A River
TTITLE6=I Cried For You
TTITLE7=Darn That Dream
TTITLE8=Do Nothing Till You Hear Form Me
TTITLE9=I've Got You Under My Skin
TTITLE10=Shoo Shoo Baby
TTITLE11=Willow Weep For Me
TTITLE12=More Than You Know
TTITLE13=Ev'ry Time We Say Goodbye
EXTD=YEAR: 2001
EXTT0=
EXTT1=
EXTT2=
EXTT3=
EXTT4=
EXTT5=
EXTT6=
EXTT7=
EXTT8=
EXTT9=
EXTT10=
EXTT11=
EXTT12=
EXTT13=
PLAYORDER=
